<?xml version="1.0" encoding="utf-8"?>
<!-- Generator: Adobe Illustrator 21.1.0, SVG Export Plug-In . SVG Version: 6.00 Build 0)  -->
<svg version="1.1" id="Layer_1" xmlns="http://www.w3.org/2000/svg" xmlns:xlink="http://www.w3.org/1999/xlink" x="0px" y="0px"
	 viewBox="0 0 167 329" style="enable-background:new 0 0 167 329;" xml:space="preserve">
<style type="text/css">
	.st0{fill:#ACD9D5;}
	.st1{fill:#CEE9E6;}
	.st2{fill:#DDF1EE;}
	.st3{opacity:0.11;}
	.st4{fill:#413C97;}
	.st5{opacity:0.51;}
	.st6{fill:url(#SVGID_1_);}
	.st7{opacity:0.7;}
	.st8{fill:url(#SVGID_2_);}
	.st9{opacity:0.49;}
	.st10{fill:#FFFFFF;}
	.st11{fill:none;stroke:#727272;stroke-width:0.5878;stroke-miterlimit:1;}
	.st12{opacity:0.58;}
	.st13{fill:#010101;}
	.st14{fill:#E6E6E5;}
</style>
<g>
	<path class="st0" d="M15.3,88.3l13,228.7h87.1l13-228.7H15.3z M106.4,301.6H37.3L27.2,120.5h89.3L106.4,301.6z"/>
	<polygon class="st1" points="55.2,88.3 15,88.3 28,317 55.2,317 55.2,301.6 36.9,301.6 26.8,120.5 55.2,120.5 	"/>
	<polygon class="st2" points="116.5,121 119.3,88.3 24.4,88.3 27.2,121 	"/>
	<g class="st3">
		<g>
			<polygon class="st4" points="56.2,120.5 27.8,120.5 37.9,301.6 56.2,301.6 			"/>
		</g>
		<g class="st5">
			<linearGradient id="SVGID_1_" gradientUnits="userSpaceOnUse" x1="42.0132" y1="301.6494" x2="42.0132" y2="120.5123">
				<stop  offset="0" style="stop-color:#101010"/>
				<stop  offset="0.5" style="stop-color:#010101"/>
				<stop  offset="0.545" style="stop-color:#040504"/>
				<stop  offset="0.7397" style="stop-color:#0E0E0E"/>
				<stop  offset="1" style="stop-color:#101010"/>
			</linearGradient>
			<polygon class="st6" points="56.2,120.5 27.8,120.5 37.9,301.6 56.2,301.6 			"/>
		</g>
		<g class="st7">
			<linearGradient id="SVGID_2_" gradientUnits="userSpaceOnUse" x1="42.0132" y1="120.5123" x2="42.0132" y2="301.6494">
				<stop  offset="0" style="stop-color:#FFFFFF;stop-opacity:0.77"/>
				<stop  offset="0.2033" style="stop-color:#FFFFFF;stop-opacity:0.65"/>
				<stop  offset="0.3448" style="stop-color:#FFFFFF;stop-opacity:0.65"/>
				<stop  offset="0.3462" style="stop-color:#FFFFFF;stop-opacity:0.65"/>
				<stop  offset="0.511" style="stop-color:#FFFFFF;stop-opacity:0"/>
				<stop  offset="0.5247" style="stop-color:#E1E1E1;stop-opacity:4.472275e-03"/>
				<stop  offset="0.5464" style="stop-color:#B8B8B8;stop-opacity:1.158136e-02"/>
				<stop  offset="0.5708" style="stop-color:#929292;stop-opacity:1.957367e-02"/>
				<stop  offset="0.5974" style="stop-color:#727272;stop-opacity:2.826838e-02"/>
				<stop  offset="0.6268" style="stop-color:#565656;stop-opacity:3.787606e-02"/>
				<stop  offset="0.6599" style="stop-color:#404040;stop-opacity:4.872554e-02"/>
				<stop  offset="0.6986" style="stop-color:#2F2F2F;stop-opacity:6.138782e-02"/>
				<stop  offset="0.7465" style="stop-color:#242424;stop-opacity:7.705475e-02"/>
				<stop  offset="0.8136" style="stop-color:#1D1D1D;stop-opacity:9.902187e-02"/>
				<stop  offset="1" style="stop-color:#1B1B1B;stop-opacity:0.16"/>
			</linearGradient>
			<polygon class="st8" points="56.2,120.5 27.8,120.5 37.9,301.6 56.2,301.6 			"/>
		</g>
		<g class="st9">
			<g>
				<path class="st10" d="M38.2,300.9c-1.4-24.5-2.7-48.9-4.1-73.4c-1.8-33.1-3.7-66.2-5.5-99.3c-0.1-1.3-1.2-6.5-0.4-7.6
					c-0.6,0.8,4.3,0.6,5.1,0.6c4.5,0,9.1,0,13.6,0c1.9,0,7.3-1,8.9,0c-0.1-0.1,0,0.3,0,1.2c0.1,3.8,0,7.6,0,11.4
					c0,34.9,0,69.9,0,104.8c0,15.9,0,31.8,0,47.7c0,4.2,0,8.4,0,12.6c0,0.4,0.3,2,0,2.3c0,0-6.4-0.3-7.3-0.3
					C45.1,300.9,41.7,300.9,38.2,300.9c0,0,0,0.7,0,0.7c5.9,0,11.7,0,17.6,0c0,0,0-0.4,0-0.4c0-20.2,0-40.5,0-60.7
					c0-32.5,0-64.9,0-97.4c0-7.4,0-14.9,0-22.3c0,0,0-0.4,0-0.4c-9.2,0-18.4,0-27.7,0c0,0,0,0.7,0,0.7c1.1,20.3,2.3,40.6,3.4,60.8
					c1.8,32.4,3.6,64.7,5.4,97.1c0.4,7.5,0.8,15,1.3,22.5C38.2,301.5,38.3,301.2,38.2,300.9z"/>
			</g>
		</g>
		<g>
			<polygon class="st11" points="56.2,120.5 27.8,120.5 37.9,301.6 56.2,301.6 			"/>
		</g>
		<g class="st12">
			<g>
				<path class="st13" d="M56.2,120.5c-9.5,0-18.9,0-28.4,0c0,0,0,0.1,0,0.1c1.1,20.4,2.3,40.8,3.4,61.2c1.8,32.5,3.6,65,5.4,97.5
					c0.4,7.5,0.8,14.9,1.2,22.4c0,0,0,0,0,0c6.1,0,12.2,0,18.3,0c0,0,0-0.1,0-0.1c0-20.4,0-40.7,0-61.1c0-32.5,0-65,0-97.5
					C56.2,135.5,56.2,128,56.2,120.5C56.2,120.4,56.2,120.4,56.2,120.5c0,24.9,0,49.8,0,74.7c0,33.1,0,66.2,0,99.3
					c0,1,0.8,6.3,0,7.1c-0.8,0.8-7,0-8.2,0c-2.3,0-4.6,0-6.9,0c-0.5,0-2.9,0.4-3.2,0c-0.8-0.7-0.3-5.5-0.4-6.5
					c-0.3-5.5-0.6-11.1-0.9-16.6c-2-36.6-4.1-73.2-6.1-109.8c-0.8-13.7-1.5-27.5-2.3-41.2c-0.1-0.9-1.1-6.3-0.4-7
					c0.4-0.5,5.3,0.1,6.2,0.1c4.7,0,9.5,0,14.2,0c2.7,0,5.3,0,8,0C56.2,120.6,56.2,120.5,56.2,120.5z"/>
			</g>
		</g>
		<g>
			<polygon class="st13" points="56.2,120.5 27.8,120.5 37.9,301.6 56.2,301.6 			"/>
		</g>
	</g>
	<path class="st10" d="M100.8,271.5c-0.3,3.6-3.5,6.2-7.1,5.9l0,0c-3.6-0.3-6.2-3.5-5.9-7.1l6.2-114.9c0.3-3.6,3.5-6.2,7.1-5.9l0,0
		c3.6,0.3,6.2,3.5,5.9,7.1L100.8,271.5z"/>
	<path class="st14" d="M157.4,13.6l-1.5-6.3c-0.3-1.4-0.2-2.2-1.6-1.9l-31.4,7.7c-6.7,1.7-11.8,6.9-13.4,13.6L89,119l11.9-0.2
		l20-89.4c0.5-2.4,2.4-4.3,4.8-4.9l31.4-7.7C158.4,16.4,157.7,15,157.4,13.6z"/>
</g>
</svg>
